/* XPM */
static const char *const clock_on_xpm[] = {
/* columns rows colors chars-per-pixel */
"52 16 4 1",
"  c Gray",
". c White",
"X c Black",
"+ c Green",
/* pixels */
"         XXXXXXXXXXXXXXXXXXXXXXXXXXXXXXXXXX         ",
"       XX++++++++++++++++++++++++XX........XX       ",
"     XX++++++++++++++++++++++++XX............XX     ",
"    X+++++++++++++++++++++++++X................X    ",
"  XX++++++++++++++++++++++++XX..................XX  ",
" XX++++++++++++++++++++++++XX....................XX ",
"XX++++++++++++++++++++++++XX......................XX",
"X+++++++++++++++++++++++++X........................X",
"X+++++++++++++++++++++++++X........................X",
"XX++++++++++++++++++++++++XX......................XX",
" XX++++++++++++++++++++++++XX....................XX ",
"  XX++++++++++++++++++++++++XX..................XX  ",
"    X+++++++++++++++++++++++++X................X    ",
"     XX++++++++++++++++++++++++XX............XX     ",
"       XX++++++++++++++++++++++++XX........XX       ",
"         XXXXXXXXXXXXXXXXXXXXXXXXXXXXXXXXXX         ",
};
